<?xml version="1.0" encoding="UTF-8"?>
<svg xmlns="http://www.w3.org/2000/svg" xmlns:xlink="http://www.w3.org/1999/xlink" viewBox="0 0 1920 1080">
  <defs>
    <style>
      .cls-1 {
        mix-blend-mode: color-dodge;
      }

      .cls-1, .cls-2, .cls-3 {
        fill: #5ba72b;
      }

      .cls-2 {
        mix-blend-mode: multiply;
      }

      .cls-4 {
        isolation: isolate;
      }

      .cls-4, .cls-5, .cls-6 {
        fill: none;
      }

      .cls-6 {
        clip-path: url(#clippath);
      }
    </style>
    <clipPath id="clippath">
      <rect class="cls-5" y="-1" width="1921" height="1081"/>
    </clipPath>
  </defs>
  <g class="cls-4">
    <g id="Calque_1" data-name="Calque 1">
      <g class="cls-6">
        <g>
          <g>
            <path class="cls-3" d="m1918.15,1043.09c16-9.97,13.88-34.74-4.85-40.76,1.96-5.09-1.65-11.48-6.08-14.73,40.66-19.48,3.33-57.34-27.22-45.82,6.18-11.55.18-22.75-11.79-20.31,6.01-24.74-25.22-33.82-36.61-11.53-2.13-32.31-49.49-19.53-51.61,6.62-10.48-26.12-46.64-21.66-39.73,7.38-12.07-1.95-17.63,9.45-11,20.77-30.99-10.39-66.8,28.96-25.45,46.83-4.32,3.45-7.63,9.94-5.5,14.96-18.51,6.76-19.62,31.58-3.27,40.94-14.34,9.75-17.83,39.24,4.25,41.95-3.88,7.49,2.98,13.29,10.06,9.63-16.39,18.37,5.32,36.78,23.09,23.58-5.64,17.08,15.79,13.05,24.4,6,9.86,8.48,23.64,8.62,34.24,1.75,7.34,10.44,22.85,3.03,31.19-2.86,10.74,8.59,26.88,8.92,37.27-.86,8.88,6.7,30.44,9.92,24.14-6.95,18.3,12.5,39.26-6.73,22.16-24.44h0c7.23,3.38,13.87-2.72,9.67-10.02,21.98-3.58,17.37-32.88,2.64-42.1Z"/>
            <path class="cls-2" d="m1918.15,1043.09c16-9.97,13.88-34.74-4.85-40.76,1.96-5.09-1.65-11.48-6.08-14.73,40.66-19.48,3.33-57.34-27.22-45.82,6.18-11.55.18-22.75-11.79-20.31,6.01-24.74-25.22-33.82-36.61-11.53-2.13-32.31-49.49-19.53-51.61,6.62-10.48-26.12-46.64-21.66-39.73,7.38-12.07-1.95-17.63,9.45-11,20.77-30.99-10.39-66.8,28.96-25.45,46.83-4.32,3.45-7.63,9.94-5.5,14.96-18.51,6.76-19.62,31.58-3.27,40.94-14.34,9.75-17.83,39.24,4.25,41.95-3.88,7.49,2.98,13.29,10.06,9.63-16.39,18.37,5.32,36.78,23.09,23.58-5.64,17.08,15.79,13.05,24.4,6,9.86,8.48,23.64,8.62,34.24,1.75,7.34,10.44,22.85,3.03,31.19-2.86,10.74,8.59,26.88,8.92,37.27-.86,8.88,6.7,30.44,9.92,24.14-6.95,18.3,12.5,39.26-6.73,22.16-24.44h0c7.23,3.38,13.87-2.72,9.67-10.02,21.98-3.58,17.37-32.88,2.64-42.1Zm-35.63-32.37c21.88,29.54-32.08,52.34-50.28,27.89-3.72,22.98-36.57,16.07-39.43-2.81-4.71,24.07-52.73,39.5-48.92,5.6-5.41,5.6-13.87,7.94-16.5-.58-25.36,21.28-45.7-16.9-16.41-30.31-12.53-4.28.67-18.36,8.83-20.29-33.45-11.02-12.64-51.15,13.12-33.29.69-7.48,6.85-10.45,12.08-6.71-11.53-31.26,27.46-46.98,35.17-11.24,5.28-21.47,35.86-36.7,42.06-8.01,7.06-7.66,19.87-2.62,17.83,7.93,23.57-18.57,36.82,5.73,21.55,26.34,37.25-16.52,43.02,24.62,13.72,40.25,2.72,1.3,5.18,3.03,7.18,5.23Z"/>
            <path class="cls-2" d="m1918.15,1043.09c14.41-8.89,15.05-32.4-2.07-39.3-.66.03-1.31.05-1.96.12,14.46,15.2,2.16,38.9-17.34,41.17,20.81,8.2,17.33,34.97-8.12,29.12,6.46,13.63-12.2,17.26-20.91,7.64,5.8,34.03-35.92,28.64-43.37,2.08,3.71,24.97-20.73,22.61-23.94,1.36-5.67,17.85-30.79,29.03-36.22,7.17-5,18.76-37.5,25.05-29.84-.95-11.24,12.36-22.46,1.67-17.33-10.78-24.44,14.67-36.99-18.96-19.94-34.54-.71.42-1.45.77-2.12,1.19,0,.01.02.05.03.05-14.34,9.75-17.83,39.24,4.25,41.95-3.88,7.49,2.98,13.29,10.06,9.63-16.39,18.37,5.32,36.78,23.09,23.58-5.64,17.08,15.79,13.05,24.4,6,9.86,8.48,23.64,8.62,34.24,1.75,7.34,10.44,22.85,3.03,31.19-2.86,10.74,8.59,26.88,8.92,37.27-.86,8.88,6.7,30.44,9.92,24.14-6.95,18.3,12.5,39.26-6.73,22.16-24.44h0c7.23,3.38,13.87-2.72,9.67-10.02,21.98-3.58,17.37-32.88,2.64-42.1Z"/>
            <path class="cls-1" d="m1727.14,962.23c-6.95-11.03-24.08,8.45-14.59,16.87,7.95,7.84,17.59-10.13,14.59-16.87Z"/>
            <path class="cls-1" d="m1719.9,1026.77c-3.78-6-13.04,4.57-7.91,9.11,4.3,4.25,9.52-5.48,7.91-9.11Z"/>
            <path class="cls-1" d="m1730.9,1072.2c-1.39-2.18-4.74,1.67-2.89,3.32,1.57,1.54,3.47-2,2.89-3.32Z"/>
            <path class="cls-1" d="m1787.42,1010.51c-15.65-6.82-27.55,34.48-5.5,23.56,5.36-3.43,14.98-19.07,5.5-23.56Z"/>
            <path class="cls-1" d="m1888.38,1060.36c-6.01-2.6-10.6,13.23-2.12,9.05,2.05-1.32,5.76-7.3,2.12-9.05Z"/>
            <path class="cls-1" d="m1853.01,945.1c-10.86-4.73-19.03,23.85-3.82,16.28,3.72-2.36,10.38-13.18,3.82-16.28Z"/>
          </g>
          <g>
            <path class="cls-3" d="m2021.92,1070.39c11.08-6.9,9.61-24.05-3.36-28.22,1.35-3.52-1.14-7.95-4.21-10.2,28.14-13.49,2.31-39.7-18.85-31.73,4.28-8,.12-15.75-8.16-14.06,4.15-17.13-17.46-23.41-25.35-7.99-1.47-22.36-34.27-13.52-35.73,4.59-7.26-18.08-32.29-14.99-27.51,5.11-8.36-1.35-12.21,6.54-7.61,14.38-21.46-7.19-46.25,20.05-17.62,32.42-2.99,2.39-5.29,6.88-3.81,10.36-12.82,4.68-13.58,21.87-2.26,28.34-9.94,6.75-12.34,27.16,2.95,29.04-2.69,5.18,2.07,9.2,6.96,6.67-11.34,12.72,3.68,25.47,15.99,16.32-3.91,11.83,10.94,9.04,16.89,4.15,6.83,5.88,16.37,5.96,23.7,1.22,5.09,7.22,15.82,2.1,21.6-1.98,7.44,5.96,18.61,6.17,25.81-.6,6.15,4.64,21.08,6.87,16.71-4.81,12.67,8.66,27.18-4.67,15.34-16.91h0c5,2.33,9.6-1.88,6.69-6.94,15.21-2.48,12.02-22.77,1.83-29.15Z"/>
            <path class="cls-2" d="m2021.92,1070.39c11.08-6.9,9.61-24.05-3.36-28.22,1.35-3.52-1.14-7.95-4.21-10.2,28.14-13.49,2.31-39.7-18.85-31.73,4.28-8,.12-15.75-8.16-14.06,4.15-17.13-17.46-23.41-25.35-7.99-1.47-22.36-34.27-13.52-35.73,4.59-7.26-18.08-32.29-14.99-27.51,5.11-8.36-1.35-12.21,6.54-7.61,14.38-21.46-7.19-46.25,20.05-17.62,32.42-2.99,2.39-5.29,6.88-3.81,10.36-12.82,4.68-13.58,21.87-2.26,28.34-9.94,6.75-12.34,27.16,2.95,29.04-2.69,5.18,2.07,9.2,6.96,6.67-11.34,12.72,3.68,25.47,15.99,16.32-3.91,11.83,10.94,9.04,16.89,4.15,6.83,5.88,16.37,5.96,23.7,1.22,5.09,7.22,15.82,2.1,21.6-1.98,7.44,5.96,18.61,6.17,25.81-.6,6.15,4.64,21.08,6.87,16.71-4.81,12.67,8.66,27.18-4.67,15.34-16.91h0c5,2.33,9.6-1.88,6.69-6.94,15.21-2.48,12.02-22.77,1.83-29.15Zm-24.68-22.41c15.15,20.45-22.21,36.23-34.81,19.31-2.57,15.91-25.32,11.12-27.3-1.95-3.26,16.68-36.51,27.34-33.87,3.88-3.75,3.88-9.6,5.5-11.43-.4-17.55,14.73-31.64-11.69-11.36-20.99-8.67-2.96.47-12.71,6.11-14.04-23.03-6.82-8.22-35.79,9.08-23.05.48-5.18,4.74-7.24,8.36-4.65-8.54-21.1,19.83-32.23,24.35-7.79,3.66-14.86,24.83-25.4,29.12-5.54,4.88-5.3,13.76-1.81,12.34,5.49,15.41-12.99,25.81,4.67,14.92,18.24,24.85-11.86,29.88,17.87,9.5,27.86,1.89.9,3.59,2.1,4.97,3.63Z"/>
            <path class="cls-2" d="m2021.92,1070.39c9.97-6.16,10.41-22.43-1.43-27.21-.46.02-.91.04-1.36.08,10.01,10.53,1.5,26.93-12.01,28.51,14.41,5.68,11.99,24.22-5.63,20.16,4.47,9.43-8.45,11.95-14.48,5.29,4.02,23.56-24.87,19.83-30.02,1.44,2.57,17.28-14.35,15.64-16.58.94-3.93,12.36-21.32,20.1-25.07,4.96-3.46,13-25.97,17.34-20.66-.66-7.79,8.56-15.54,1.15-11.99-7.46-16.92,10.16-25.61-13.13-13.81-23.9-.49.29-1,.53-1.47.82,0,0,.02.03.02.03-9.94,6.75-12.34,27.16,2.95,29.04-2.69,5.18,2.07,9.2,6.96,6.67-11.34,12.72,3.68,25.47,15.99,16.32-3.91,11.83,10.94,9.04,16.89,4.15,6.83,5.88,16.37,5.96,23.7,1.22,5.09,7.22,15.82,2.1,21.6-1.98,7.44,5.96,18.61,6.17,25.81-.6,6.15,4.64,21.08,6.87,16.71-4.81,12.67,8.66,27.18-4.67,15.34-16.91h0c5,2.33,9.6-1.88,6.69-6.94,15.21-2.48,12.02-22.77,1.83-29.15Z"/>
            <path class="cls-1" d="m1889.68,1014.41c-4.82-7.63-16.68,5.85-10.1,11.68,5.51,5.43,12.18-7.01,10.1-11.68Z"/>
            <path class="cls-1" d="m1884.66,1059.09c-2.62-4.15-9.03,3.17-5.47,6.31,2.98,2.94,6.59-3.8,5.47-6.31Z"/>
            <path class="cls-1" d="m1931.41,1047.83c-10.82-4.72-19.08,23.87-3.81,16.31,3.72-2.37,10.38-13.2,3.81-16.31Z"/>
          </g>
        </g>
      </g>
    </g>
  </g>
</svg>