<?xml version="1.0" encoding="UTF-8"?>
<svg xmlns="http://www.w3.org/2000/svg" xmlns:xlink="http://www.w3.org/1999/xlink" viewBox="0 0 1920 1080">
  <defs>
    <style>
      .cls-1 {
        mix-blend-mode: color-dodge;
      }

      .cls-1, .cls-2, .cls-3 {
        fill: #5ba72b;
      }

      .cls-2 {
        mix-blend-mode: multiply;
      }

      .cls-4 {
        isolation: isolate;
      }

      .cls-4, .cls-5, .cls-6 {
        fill: none;
      }

      .cls-6 {
        clip-path: url(#clippath);
      }
    </style>
    <clipPath id="clippath">
      <rect class="cls-5" y="-1" width="1921" height="1081"/>
    </clipPath>
  </defs>
  <g class="cls-4">
    <g id="Calque_1" data-name="Calque 1">
      <g class="cls-6">
        <g>
          <g>
            <path class="cls-3" d="m245.33,1013.74c8.15-5.4,12.99-14.54,14.83-25.26,1.46-8.47-6.12-18.56-12.54-23.05-2.78-1.94-5.65-3.52-8.63-4.97,1.59-4.47.38-9.44-2.8-13.95-1.43-2.03-3.19-3.78-5.15-5.3,17.59-10.05,31.15-26.01,20.96-41.41-8.48-12.79-22.32-18.99-37.26-20.79-6.09-.74-13.09.14-19.28,2.31,3.16-7.42,4.42-15.05,2.07-19.18-3.97-7.04-10.63-8.58-17.48-7.37.1-.68.23-1.39.32-2.03,1.37-9.08-1.05-21.45-9.69-26.6-15.32-9.15-28.95-.44-38.49,13.55-.35-3.05-.93-5.94-1.54-8.46-5.07-20.63-32.48-18.93-47.1-10.99-3.7,2.01-6.85,4.89-9.5,8.32-.14.17-.29.36-.42.56-4.27,5.64-7.19,12.58-8.91,19.22-10.12-17.65-26.25-30.68-43.69-19.31-8.45,5.48-10.38,17.94-8.66,26.96.12.63.28,1.34.43,2-6.91-.94-13.5.85-17.2,8.05-2.19,4.22-.64,11.79,2.82,19.1-6.29-1.95-13.32-2.56-19.37-1.59-14.86,2.39-28.46,9.11-36.42,22.23-9.59,15.79,4.58,31.2,22.53,40.56-1.9,1.61-3.59,3.45-4.93,5.48-3,4.64-4,9.66-2.25,14.07-2.92,1.55-5.73,3.25-8.44,5.3-6.25,4.75-13.41,15.11-11.65,23.51,2.29,10.65,7.47,19.61,15.81,24.7-10.87,8.8-17.4,22.44-14.63,37.61,1.84,10.13,10.82,15.43,20.19,17.22-1.25,3.03-1.68,6.23-.77,9.61,1.56,5.89,9.89,4.49,13.92,2.99h0c-6.09,8.76-10.89,19.09-5.18,28.03,8.06,12.69,24.51,9.26,35.37,2.79-2.16,6.36-1.89,11.94,3.65,14.75,8.03,4.12,20.25-1.82,28.24-6.92,5.68,5.6,15.6,8.33,22.32,8.72,7.35.43,15.79-2.17,22.43-6.43,1.35,2.14,3.38,3.94,6.29,5.28,10.94,4.98,25.2-2.75,34.48-9.03,7.13,5.74,17.81,9.27,26.74,8.43,6.69-.65,16.51-3.78,21.98-9.56,8.18,4.76,20.61,10.23,28.49,5.82,5.42-3.05,5.47-8.62,3.07-14.91,11.11,6.03,27.69,8.85,35.25-4.15,5.35-9.16.15-19.28-6.28-27.78h0c4.08,1.34,12.45,2.41,13.81-3.51.77-3.44.21-6.63-1.17-9.59,9.3-2.16,18.07-7.8,19.54-18,2.19-15.27-4.88-28.63-16.09-37.03Z"/>
            <path class="cls-2" d="m245.33,1013.74c8.15-5.4,12.99-14.54,14.83-25.26,1.46-8.47-6.12-18.56-12.54-23.05-2.78-1.94-5.65-3.52-8.63-4.97,1.59-4.47.38-9.44-2.8-13.95-1.43-2.03-3.19-3.78-5.15-5.3,17.59-10.05,31.15-26.01,20.96-41.41-8.48-12.79-22.32-18.99-37.26-20.79-6.09-.74-13.09.14-19.28,2.31,3.16-7.42,4.42-15.05,2.07-19.18-3.97-7.04-10.63-8.58-17.48-7.37.1-.68.23-1.39.32-2.03,1.37-9.08-1.05-21.45-9.69-26.6-15.32-9.15-28.95-.44-38.49,13.55-.35-3.05-.93-5.94-1.54-8.46-5.07-20.63-32.48-18.93-47.1-10.99-3.7,2.01-6.85,4.89-9.5,8.32-.14.17-.29.36-.42.56-4.27,5.64-7.19,12.58-8.91,19.22-10.12-17.65-26.25-30.68-43.69-19.31-8.45,5.48-10.38,17.94-8.66,26.96.12.63.28,1.34.43,2-6.91-.94-13.5.85-17.2,8.05-2.19,4.22-.64,11.79,2.82,19.1-6.29-1.95-13.32-2.56-19.37-1.59-14.86,2.39-28.46,9.11-36.42,22.23-9.59,15.79,4.58,31.2,22.53,40.56-1.9,1.61-3.59,3.45-4.93,5.48-3,4.64-4,9.66-2.25,14.07-2.92,1.55-5.73,3.25-8.44,5.3-6.25,4.75-13.41,15.11-11.65,23.51,2.29,10.65,7.47,19.61,15.81,24.7-10.87,8.8-17.4,22.44-14.63,37.61,1.84,10.13,10.82,15.43,20.19,17.22-1.25,3.03-1.68,6.23-.77,9.61,1.56,5.89,9.89,4.49,13.92,2.99h0c-6.09,8.76-10.89,19.09-5.18,28.03,8.06,12.69,24.51,9.26,35.37,2.79-2.16,6.36-1.89,11.94,3.65,14.75,8.03,4.12,20.25-1.82,28.24-6.92,5.68,5.6,15.6,8.33,22.32,8.72,7.35.43,15.79-2.17,22.43-6.43,1.35,2.14,3.38,3.94,6.29,5.28,10.94,4.98,25.2-2.75,34.48-9.03,7.13,5.74,17.81,9.27,26.74,8.43,6.69-.65,16.51-3.78,21.98-9.56,8.18,4.76,20.61,10.23,28.49,5.82,5.42-3.05,5.47-8.62,3.07-14.91,11.11,6.03,27.69,8.85,35.25-4.15,5.35-9.16.15-19.28-6.28-27.78h0c4.08,1.34,12.45,2.41,13.81-3.51.77-3.44.21-6.63-1.17-9.59,9.3-2.16,18.07-7.8,19.54-18,2.19-15.27-4.88-28.63-16.09-37.03Zm-46.58-42.3c11.5,12.61,7.25,29.7-5.08,40.09-14.03,11.82-37.43,13.6-52.65,3.13-2.96-2.05-5.62-4.31-7.99-6.77-2.92,11.19-10.04,20.27-23.21,19.4-16.21-1.1-24.59-10.72-28.33-23.07-6.25,15.52-18.68,29.17-34.37,32.26-10.53,2.05-22.72.84-28.32-9.47-2.55-4.67-2.54-10.18-1.25-15.47-6.67,6.2-14.99,10.41-20.5,1.92-.54-.81-.86-1.73-1.07-2.68-13.56,9.41-29.64,13.69-38.83-3.21-7.66-14.05,3.52-28.13,17.39-36.41-1.74-.24-3.35-.82-4.54-2.13-3.26-3.68-2.34-9,.34-12.9,3.62-5.23,9.39-9.02,15.74-11.48-15.32-7.17-30.12-20.21-21.22-35.43,10.42-17.82,25.47-16.54,38.37-8.08.13-1.12.36-2.21.68-3.21,2.96-9.02,9.22-9.01,15.11-5.56-2.57-7.95-3.22-16.62-1.16-24.09,3.09-11.21,14.3-21.83,26.86-17.37,10.49,3.75,16.93,14.49,20.27,26.77,3.48-9.28,8.95-17.84,15.05-23.49,8.63-7.95,23.37-12.69,32.28-2.32,3.63,4.19,6.12,9.51,7.65,15.34,3.52-3.26,7.59-5.22,12.2-4.88,8.86.64,11.76,7.69,11.11,15.24,5.46-4.33,12.04-7.35,18.6-8.39,8.33-1.3,17.7,3.84,18.4,12.83.74,9.76-3.52,20.96-8.83,30,12.43-4.84,28.39-8.39,37.2,1.18,16.64,18.13-2.98,40.34-19.26,51.43,3.56,1.7,6.77,3.96,9.38,6.84Z"/>
            <path class="cls-2" d="m245.33,1013.74c8.15-5.4,12.99-14.54,14.83-25.26,1.46-8.47-6.12-18.56-12.54-23.05-1.62-1.13-3.29-2.14-4.99-3.05-.86.04-1.71.07-2.56.16,5.53,6.82,8.99,14.89,8.37,24.26-.69,10.48-9.3,20.69-18.44,25.23-4.1,2.02-8.32,3.43-12.6,4.32,8.82,5.12,21.21,14.11,18.45,25.69-2.87,12-15.5,14.49-29.07,12.36,2.75,5.1,2.89,10.24-2.16,14.47-7.41,6.22-16.78,2.04-25.17-4.48.64,3.62.77,7.35.53,10.89-.73,9.61-7.01,19.48-17.15,20.94-20,2.92-31.58-12.67-40.06-29.1.59,11.56-.97,25.23-12.21,24.35-10.4-.79-16.18-11.31-19.08-22.57-5.77,13.96-17.65,25.97-30.23,25.35-9.71-.5-14.89-7.11-17.1-15.98-3.55,6.86-7.99,13.33-13.93,17.81-6.74,5.08-19.5,7.67-24.5-1.65-2.95-5.51-2.6-11.64-.56-17.4-7.27,6.22-15.96,11.17-20.85,4.33-4.2-5.92-4.08-12.18-1.8-18.42-5.7,2.72-11.64,4.59-17.51,4.37-11-.42-16.43-8.11-18.42-18.34-2.27-11.64,2.24-22.71,9.86-31.18-.92.55-1.89,1.01-2.78,1.56,0,.02.03.06.04.06-10.87,8.8-17.4,22.44-14.63,37.61,1.84,10.13,10.82,15.43,20.19,17.22-1.25,3.03-1.68,6.23-.77,9.61,1.56,5.89,9.89,4.49,13.92,2.99h0c-6.09,8.76-10.89,19.09-5.18,28.03,8.06,12.69,24.51,9.26,35.37,2.79-2.16,6.36-1.89,11.94,3.65,14.75,8.03,4.12,20.25-1.82,28.24-6.92,5.68,5.6,15.6,8.33,22.32,8.72,7.35.43,15.79-2.17,22.43-6.43,1.35,2.14,3.38,3.94,6.29,5.28,10.94,4.98,25.2-2.75,34.48-9.03,7.13,5.74,17.81,9.27,26.74,8.43,6.69-.65,16.51-3.78,21.98-9.56,8.18,4.76,20.61,10.23,28.49,5.82,5.42-3.05,5.47-8.62,3.07-14.91,11.11,6.03,27.69,8.85,35.25-4.15,5.35-9.16.15-19.28-6.28-27.78h0c4.08,1.34,12.45,2.41,13.81-3.51.77-3.44.21-6.63-1.17-9.59,9.3-2.16,18.07-7.8,19.54-18,2.19-15.27-4.88-28.63-16.09-37.03Z"/>
            <path class="cls-1" d="m30.47,1071.1c-.88-2.02-2.98-3.01-6.62-1.57-4.61,1.83-7.69,9.58-3.69,13.51,5.63,5.55,12.45-7.15,10.31-11.94Z"/>
            <path class="cls-1" d="m.59,1051.78c-.35-.75-1.11-1.11-2.43-.58-1.67.68-2.78,3.49-1.35,4.92,2.05,2.01,4.54-2.61,3.78-4.34Z"/>
            <path class="cls-1" d="m74.45,971.15c-11.11-5.25-21.79,11.64-23.2,20.45-1.79,11.21,6.42,16.47,16.01,10.35,7-4.49,19.58-24.93,7.19-30.8Z"/>
            <path class="cls-1" d="m206.42,1036.31c-4.27-2-8.38,4.46-8.93,7.86-.67,4.3,2.49,6.31,6.16,3.96,2.69-1.73,7.53-9.55,2.77-11.82Z"/>
            <path class="cls-1" d="m160.19,885.66c-7.7-3.65-15.09,8.05-16.04,14.11-1.25,7.78,4.43,11.41,11.05,7.17,4.86-3.09,13.57-17.23,4.99-21.28Z"/>
          </g>
          <g>
            <path class="cls-3" d="m380.97,1049.42c5.64-3.73,8.99-10.06,10.27-17.49,1.01-5.87-4.23-12.85-8.68-15.96-1.93-1.34-3.91-2.44-5.97-3.44,1.1-3.1.26-6.54-1.94-9.66-.99-1.41-2.21-2.62-3.56-3.67,12.17-6.97,21.56-18.01,14.51-28.68-5.87-8.85-15.45-13.14-25.79-14.39-4.21-.51-9.06.1-13.35,1.6,2.19-5.14,3.06-10.42,1.43-13.28-2.75-4.88-7.36-5.94-12.1-5.1.06-.48.16-.96.22-1.41.95-6.28-.73-14.85-6.71-18.41-10.61-6.34-20.05-.3-26.65,9.38-.25-2.11-.64-4.11-1.06-5.86-3.51-14.28-22.48-13.1-32.61-7.6-2.56,1.38-4.74,3.39-6.57,5.76-.1.12-.21.25-.3.39-2.96,3.9-4.97,8.71-6.16,13.31-7.01-12.22-18.17-21.23-30.25-13.36-5.85,3.79-7.18,12.42-6,18.67.09.44.19.93.29,1.39-4.79-.65-9.34.59-11.9,5.57-1.52,2.92-.44,8.17,1.95,13.22-4.36-1.35-9.22-1.78-13.41-1.1-10.29,1.66-19.7,6.31-25.22,15.39-6.64,10.94,3.17,21.61,15.6,28.09-1.32,1.11-2.49,2.39-3.42,3.8-2.07,3.21-2.77,6.68-1.56,9.74-2.01,1.08-3.96,2.25-5.84,3.66-4.33,3.29-9.29,10.47-8.07,16.28,1.59,7.38,5.17,13.57,10.95,17.1-7.53,6.09-12.05,15.53-10.13,26.03,1.27,7.01,7.49,10.68,13.98,11.93-.86,2.09-1.16,4.31-.53,6.65,1.08,4.08,6.85,3.11,9.63,2.07h0c-4.21,6.07-7.54,13.21-3.59,19.4,5.58,8.79,16.97,6.42,24.49,1.93-1.5,4.4-1.31,8.27,2.53,10.22,5.56,2.85,14.02-1.26,19.55-4.79,3.93,3.88,10.8,5.77,15.45,6.04,5.09.3,10.93-1.51,15.53-4.45.93,1.49,2.34,2.73,4.35,3.65,7.57,3.46,17.45-1.9,23.87-6.24,4.94,3.98,12.33,6.42,18.51,5.84,4.63-.45,11.43-2.62,15.22-6.63,5.66,3.3,14.27,7.09,19.72,4.04,3.75-2.11,3.79-5.97,2.12-10.32,7.69,4.18,19.17,6.13,24.4-2.87,3.71-6.34.11-13.35-4.35-19.23h0c2.82.92,8.62,1.66,9.56-2.44.53-2.37.14-4.59-.81-6.64,6.43-1.5,12.51-5.4,13.52-12.46,1.52-10.57-3.38-19.82-11.14-25.64Z"/>
            <path class="cls-2" d="m380.97,1049.42c5.64-3.73,8.99-10.06,10.27-17.49,1.01-5.87-4.23-12.85-8.68-15.96-1.93-1.34-3.91-2.44-5.97-3.44,1.1-3.1.26-6.54-1.94-9.66-.99-1.41-2.21-2.62-3.56-3.67,12.17-6.97,21.56-18.01,14.51-28.68-5.87-8.85-15.45-13.14-25.79-14.39-4.21-.51-9.06.1-13.35,1.6,2.19-5.14,3.06-10.42,1.43-13.28-2.75-4.88-7.36-5.94-12.1-5.1.06-.48.16-.96.22-1.41.95-6.28-.73-14.85-6.71-18.41-10.61-6.34-20.05-.3-26.65,9.38-.25-2.11-.64-4.11-1.06-5.86-3.51-14.28-22.48-13.1-32.61-7.6-2.56,1.38-4.74,3.39-6.57,5.76-.1.12-.21.25-.3.39-2.96,3.9-4.97,8.71-6.16,13.31-7.01-12.22-18.17-21.23-30.25-13.36-5.85,3.79-7.18,12.42-6,18.67.09.44.19.93.29,1.39-4.79-.65-9.34.59-11.9,5.57-1.52,2.92-.44,8.17,1.95,13.22-4.36-1.35-9.22-1.78-13.41-1.1-10.29,1.66-19.7,6.31-25.22,15.39-6.64,10.94,3.17,21.61,15.6,28.09-1.32,1.11-2.49,2.39-3.42,3.8-2.07,3.21-2.77,6.68-1.56,9.74-2.01,1.08-3.96,2.25-5.84,3.66-4.33,3.29-9.29,10.47-8.07,16.28,1.59,7.38,5.17,13.57,10.95,17.1-7.53,6.09-12.05,15.53-10.13,26.03,1.27,7.01,7.49,10.68,13.98,11.93-.86,2.09-1.16,4.31-.53,6.65,1.08,4.08,6.85,3.11,9.63,2.07h0c-4.21,6.07-7.54,13.21-3.59,19.4,5.58,8.79,16.97,6.42,24.49,1.93-1.5,4.4-1.31,8.27,2.53,10.22,5.56,2.85,14.02-1.26,19.55-4.79,3.93,3.88,10.8,5.77,15.45,6.04,5.09.3,10.93-1.51,15.53-4.45.93,1.49,2.34,2.73,4.35,3.65,7.57,3.46,17.45-1.9,23.87-6.24,4.94,3.98,12.33,6.42,18.51,5.84,4.63-.45,11.43-2.62,15.22-6.63,5.66,3.3,14.27,7.09,19.72,4.04,3.75-2.11,3.79-5.97,2.12-10.32,7.69,4.18,19.17,6.13,24.4-2.87,3.71-6.34.11-13.35-4.35-19.23h0c2.82.92,8.62,1.66,9.56-2.44.53-2.37.14-4.59-.81-6.64,6.43-1.5,12.51-5.4,13.52-12.46,1.52-10.57-3.38-19.82-11.14-25.64Zm-32.25-29.28c7.97,8.74,5.03,20.57-3.51,27.75-9.71,8.19-25.91,9.42-36.45,2.17-2.05-1.41-3.89-2.98-5.53-4.68-2.02,7.75-6.95,14.03-16.06,13.43-11.22-.76-17.03-7.43-19.62-15.97-4.32,10.75-12.94,20.2-23.79,22.34-7.3,1.42-15.73.58-19.61-6.56-1.77-3.24-1.76-7.05-.86-10.71-4.62,4.29-10.38,7.21-14.19,1.33-.37-.56-.6-1.2-.74-1.86-9.38,6.52-20.51,9.48-26.88-2.22-5.3-9.73,2.44-19.47,12.03-25.21-1.21-.17-2.32-.57-3.14-1.47-2.25-2.55-1.62-6.23.24-8.93,2.5-3.62,6.5-6.25,10.9-7.95-10.61-4.98-20.86-13.99-14.69-24.53,7.22-12.34,17.63-11.45,26.56-5.59.09-.77.25-1.53.47-2.22,2.05-6.24,6.38-6.24,10.46-3.85-1.78-5.5-2.23-11.5-.8-16.68,2.14-7.76,9.9-15.12,18.6-12.03,7.26,2.6,11.72,10.03,14.03,18.53,2.4-6.42,6.2-12.35,10.42-16.25,5.97-5.5,16.18-8.78,22.35-1.61,2.51,2.9,4.23,6.58,5.3,10.62,2.44-2.26,5.25-3.61,8.44-3.37,6.14.44,8.14,5.32,7.69,10.55,3.78-3,8.34-5.08,12.87-5.82,5.77-.9,12.25,2.67,12.74,8.88.52,6.75-2.44,14.51-6.11,20.77,8.6-3.35,19.65-5.81,25.75.82,11.52,12.55-2.06,27.93-13.34,35.6,2.46,1.18,4.69,2.74,6.5,4.74Z"/>
            <path class="cls-2" d="m380.97,1049.42c5.64-3.73,8.99-10.06,10.27-17.49,1.01-5.87-4.23-12.85-8.68-15.96-1.12-.78-2.28-1.48-3.45-2.12-.6.03-1.19.05-1.77.11,3.83,4.73,6.23,10.31,5.79,16.8-.48,7.26-6.43,14.33-12.77,17.47-2.84,1.39-5.76,2.37-8.72,2.99,6.1,3.54,14.68,9.78,12.77,17.79-1.99,8.31-10.73,10.04-20.13,8.56,1.9,3.53,2,7.09-1.5,10.02-5.13,4.31-11.62,1.42-17.43-3.1.45,2.51.54,5.09.36,7.53-.51,6.65-4.85,13.48-11.87,14.5-13.85,2.02-21.86-8.77-27.73-20.15.41,8-.68,17.46-8.45,16.85-7.2-.54-11.21-7.83-13.21-15.62-4,9.66-12.22,17.98-20.93,17.55-6.72-.35-10.31-4.93-11.84-11.07-2.46,4.76-5.53,9.24-9.64,12.33-4.67,3.52-13.5,5.31-16.97-1.14-2.05-3.81-1.8-8.06-.39-12.05-5.04,4.31-11.05,7.74-14.43,3-2.91-4.1-2.83-8.43-1.25-12.75-3.94,1.89-8.06,3.18-12.12,3.03-7.62-.29-11.37-5.62-12.75-12.7-1.57-8.06,1.55-15.73,6.83-21.58-.64.38-1.31.69-1.92,1.07,0,.01.02.04.03.04-7.53,6.09-12.05,15.53-10.13,26.03,1.27,7.01,7.49,10.68,13.98,11.93-.86,2.09-1.16,4.31-.53,6.65,1.08,4.08,6.85,3.11,9.63,2.07h0c-4.21,6.07-7.54,13.21-3.59,19.4,5.58,8.79,16.97,6.42,24.49,1.93-1.5,4.4-1.31,8.27,2.53,10.22,5.56,2.85,14.02-1.26,19.55-4.79,3.93,3.88,10.8,5.77,15.45,6.04,5.09.3,10.93-1.51,15.53-4.45.93,1.49,2.34,2.73,4.35,3.65,7.57,3.46,17.45-1.9,23.87-6.24,4.94,3.98,12.33,6.42,18.51,5.84,4.63-.45,11.43-2.62,15.22-6.63,5.66,3.3,14.27,7.09,19.72,4.04,3.75-2.11,3.79-5.97,2.12-10.32,7.69,4.18,19.17,6.13,24.4-2.87,3.71-6.34.11-13.35-4.35-19.23h0c2.82.92,8.62,1.66,9.56-2.44.53-2.37.14-4.59-.81-6.64,6.43-1.5,12.51-5.4,13.52-12.46,1.52-10.57-3.38-19.82-11.14-25.64Z"/>
            <path class="cls-1" d="m208.11,976.25c-1.15-2.58-3.86-3.9-8.5-2.03-5.89,2.35-9.82,12.26-4.71,17.3,7.2,7.1,15.92-9.16,13.21-15.27Z"/>
            <path class="cls-1" d="m201.56,1034.65c-.63-1.4-2.1-2.12-4.6-1.12-3.2,1.29-5.31,6.64-2.55,9.36,3.89,3.84,8.61-4.96,7.15-8.25Z"/>
            <path class="cls-1" d="m211.52,1075.75c-.24-.51-.77-.76-1.69-.39-1.16.47-1.92,2.41-.93,3.41,1.42,1.39,3.14-1.81,2.62-3.01Z"/>
            <path class="cls-1" d="m262.66,1019.93c-7.69-3.64-15.08,8.06-16.06,14.16-1.23,7.76,4.44,11.4,11.08,7.16,4.86-3.1,13.57-17.25,4.99-21.32Z"/>
            <path class="cls-1" d="m354.02,1065.04c-2.95-1.38-5.8,3.1-6.18,5.45-.46,2.97,1.72,4.37,4.26,2.74,1.86-1.2,5.21-6.61,1.91-8.19Z"/>
            <path class="cls-1" d="m322.02,960.75c-5.33-2.53-10.45,5.57-11.11,9.77-.86,5.39,3.07,7.91,7.65,4.97,3.36-2.14,9.4-11.93,3.46-14.73Z"/>
          </g>
        </g>
      </g>
    </g>
  </g>
</svg>